<?xml version="1.0" encoding="utf-8"?>
<!-- Generator: Adobe Illustrator 14.0.0, SVG Export Plug-In . SVG Version: 6.00 Build 43363)  -->
<!DOCTYPE svg PUBLIC "-//W3C//DTD SVG 1.1//EN" "http://www.w3.org/Graphics/SVG/1.1/DTD/svg11.dtd">
<svg version="1.1" id="Layer_1" focusable="false" xmlns="http://www.w3.org/2000/svg" xmlns:xlink="http://www.w3.org/1999/xlink"
	 x="0px" y="0px" width="400px" height="350px" viewBox="0 25 400 350" enable-background="new 0 25 400 350" xml:space="preserve">
<path fill="#C70F15" d="M37.5,37.5C16.79,37.5,0,54.289,0,75c0,20.71,16.79,37.5,37.5,37.5S75,95.71,75,75
	C75,54.289,58.21,37.5,37.5,37.5z M37.5,162.5C16.79,162.5,0,179.289,0,200s16.79,37.5,37.5,37.5S75,220.711,75,200
	S58.21,162.5,37.5,162.5z M37.5,287.5C16.79,287.5,0,304.289,0,325s16.79,37.5,37.5,37.5S75,345.711,75,325S58.21,287.5,37.5,287.5z
	 M387.5,300h-250c-6.903,0-12.5,5.597-12.5,12.5v25c0,6.903,5.597,12.5,12.5,12.5h250c6.903,0,12.5-5.597,12.5-12.5v-25
	C400,305.597,394.403,300,387.5,300z M387.5,50h-250c-6.903,0-12.5,5.597-12.5,12.5v25c0,6.903,5.597,12.5,12.5,12.5h250
	c6.903,0,12.5-5.597,12.5-12.5v-25C400,55.597,394.403,50,387.5,50z M387.5,175h-250c-6.903,0-12.5,5.597-12.5,12.5v25
	c0,6.903,5.597,12.5,12.5,12.5h250c6.903,0,12.5-5.597,12.5-12.5v-25C400,180.597,394.403,175,387.5,175z"/>
</svg>
